<svg width="76" height="84" viewBox="0 0 76 84" fill="none" xmlns="http://www.w3.org/2000/svg">
<path d="M38 37.4157L44.3123 30.437C38.3802 22.8161 35.1212 13.0931 35.1288 3.03863C35.1288 2.02576 35.1636 1.00275 35.2277 0C27.1068 0.632677 19.3852 4.13619 13.2035 9.99306L38 37.4157ZM48.4697 25.8405L62.7965 9.99306C56.7043 4.2197 49.1135 0.730301 41.1149 0.026335C41.0398 1.01896 40.9976 2.02373 40.9976 3.03863C40.9901 11.3734 43.6353 19.4453 48.4697 25.8405ZM52.6162 30.4248C58.4 35.7719 65.7011 38.6986 73.2406 38.6919C74.1567 38.6919 75.0729 38.6454 75.9652 38.5623C75.3296 29.717 72.1734 21.3224 66.9503 14.5854L52.6162 30.4248ZM23.3838 53.5752C17.6002 48.2278 10.2989 45.3011 2.75944 45.3081C1.84085 45.3081 0.932639 45.3513 0.0348134 45.4377C0.670414 54.283 3.82664 62.6776 9.04971 69.4146L23.3838 53.5752ZM38 46.5843L31.6877 53.563C37.6198 61.1839 40.8788 70.907 40.8712 80.9614C40.8712 81.9742 40.8364 82.9973 40.7723 84C48.8933 83.3678 56.615 79.8642 62.7965 74.007L38 46.5843ZM73.2406 45.1744C64.1463 45.1828 55.3519 41.5797 48.4587 35.0213L42.1465 42L66.9503 69.4146C72.2518 62.5818 75.4246 54.0448 76 45.065C75.082 45.1359 74.164 45.1744 73.2406 45.1744ZM33.8535 42L9.04971 14.5854C3.74787 21.418 0.574976 29.9551 0 38.935C0.916148 38.8641 1.8323 38.8256 2.74844 38.8256C11.8427 38.8172 20.6371 42.4203 27.5303 48.9787L33.8535 42ZM13.2035 74.007C19.2957 79.7803 26.8865 83.2697 34.8851 83.9737C34.9621 82.9811 35.0011 81.9769 35.0024 80.9614C35.0087 72.6258 32.3615 64.5537 27.5248 58.1595L13.2035 74.007Z" fill="#0C4387"/>
</svg>
