<svg width="100" height="100" viewBox="0 0 100 100" fill="none" xmlns="http://www.w3.org/2000/svg">
<path d="M96.8031 70.8906C96.8031 70.7781 96.825 70.6687 96.825 70.5562V70.2156L96.25 33.3906C96.3764 29.1409 95.0147 24.9806 92.4 21.6281C91.0031 19.9825 89.2534 18.6725 87.281 17.7956C85.3085 16.9187 83.1639 16.4972 81.0063 16.5625C79.9063 16.5625 78.7219 16.6344 77.6219 16.7C75.5429 16.9244 73.4446 16.8982 71.3719 16.6219H71.3219L71.1719 16.5625C71.0067 16.5049 70.844 16.4402 70.6844 16.3687C70.1673 16.1391 69.6557 15.8974 69.15 15.6437C65.747 13.7413 61.9502 12.6514 58.0562 12.4594C54.8512 12.5459 51.7183 13.4298 48.9406 15.0312C46.0106 16.746 42.6437 17.5682 39.2531 17.3969C36.1334 17.1777 33.004 17.6537 30.0907 18.7908C27.1773 19.9278 24.5527 21.6974 22.4062 23.9719C20.5886 25.6185 18.3819 26.7756 15.9937 27.3343C14.3763 27.8447 12.8076 28.4983 11.3062 29.2875L11.2594 29.3156L11.2125 29.3375C8.71438 30.8918 6.65825 33.0628 5.24186 35.6417C3.82547 38.2205 3.09647 41.1204 3.125 44.0625V64.9406C2.79834 69.5599 3.77268 74.1782 5.9375 78.2719C7.19458 80.1002 8.86558 81.6059 10.8145 82.6664C12.7634 83.7269 14.9352 84.3123 17.1531 84.375C19.8758 84.7439 22.6457 84.2522 25.075 82.9687C25.8333 82.5463 26.5446 82.0446 27.1969 81.4718C27.7906 82.3062 28.4625 83.0812 29.2 83.7906C31.4666 86.0475 34.4978 87.3713 37.6938 87.5C38.9177 87.5063 40.1408 87.4374 41.3563 87.2937H41.5438C42.8633 90.6258 45.3596 93.3578 48.5594 94.9719C50.5909 95.9119 52.7938 96.4247 55.0316 96.4784C57.2694 96.5322 59.4944 96.1258 61.5687 95.2843L85.3969 87.0062C85.6906 86.9062 85.9812 86.7969 86.2656 86.6937C88.6256 85.975 90.7446 84.6254 92.3938 82.7906C93.2906 81.9125 94.0563 80.9094 94.6656 79.8125C95.6675 77.917 96.3126 75.8536 96.5688 73.725C96.6094 73.4562 96.6375 73.1844 96.6688 72.9125C96.7406 72.1375 96.7906 71.475 96.8031 70.8906ZM33.4719 79.2125C32.4085 78.3037 31.625 77.1116 31.2125 75.775C31.1696 75.6392 31.1174 75.5066 31.0562 75.3781V46.6812C31.0562 45.8524 30.727 45.0576 30.141 44.4715C29.5549 43.8855 28.7601 43.5562 27.9312 43.5562C27.1024 43.5562 26.3076 43.8855 25.7215 44.4715C25.1355 45.0576 24.8063 45.8524 24.8063 46.6812V75.0156C24.6844 75.15 24.5344 75.2937 24.4375 75.4031C23.7737 76.2256 22.9722 76.9266 22.0687 77.475C19.7562 78.6469 16.4187 78.4625 14.1125 77.3344C12.9621 76.7728 11.964 75.942 11.2031 74.9125C9.70601 71.8141 9.07436 68.3686 9.375 64.9406V44.0625C9.34812 42.2287 9.78279 40.4176 10.639 38.7957C11.4953 37.1739 12.7456 35.7934 14.275 34.7812L14.3687 34.7312C15.5482 34.1255 16.7791 33.6257 18.0469 33.2375C21.5153 32.3387 24.678 30.5232 27.2031 27.9812C28.7319 26.4468 30.5759 25.2628 32.6074 24.5111C34.6388 23.7595 36.8094 23.4582 38.9688 23.6281C43.4143 23.8532 47.8324 22.8118 51.7094 20.625C53.6287 19.4581 55.8121 18.7959 58.0562 18.7C60.9989 18.903 63.8561 19.7763 66.4094 21.2531C67.5903 21.8939 68.8427 22.3931 70.1406 22.7406C72.7411 23.1325 75.3805 23.1965 77.9969 22.9312C79.1438 22.8625 80.1313 22.8031 81.0063 22.8031C82.2462 22.7374 83.4847 22.9567 84.6267 23.4443C85.7686 23.9318 86.7836 24.6746 87.5938 25.6156C89.2813 27.8625 90.1312 30.625 90 33.4281V33.4781L90.5719 70.3125C90.5719 70.5031 90.5719 70.725 90.55 70.9375C90.55 71.3469 90.5125 71.7437 90.4688 72.1312C90.4469 72.3625 90.4156 72.6 90.3844 72.8375C90.0931 74.8887 89.2263 76.8153 87.8844 78.3937C87.5719 78.7094 87.2219 78.9906 86.8469 79.2281C85.3978 80.0106 83.7641 80.3864 82.1188 80.3156C80.7579 80.3813 79.4068 80.056 78.225 79.3781C77.4 78.8431 76.7442 78.0844 76.3344 77.1906C75.434 74.9864 75.041 72.6079 75.1844 70.2312C75.1735 70.1481 75.1578 70.0657 75.1375 69.9844V41.7969C75.1375 40.9681 74.8083 40.1732 74.2222 39.5871C73.6362 39.0011 72.8413 38.6719 72.0125 38.6719C71.1837 38.6719 70.3888 39.0011 69.8028 39.5871C69.2167 40.1732 68.8875 40.9681 68.8875 41.7969V73.7312C68.8223 75.4817 68.1931 77.1643 67.0938 78.5281C66.4411 79.3484 65.6054 80.0043 64.6535 80.4434C63.7016 80.8824 62.6601 81.0923 61.6125 81.0562C59.2952 81.283 56.967 80.7511 54.9781 79.5406C54.2854 78.8783 53.7513 78.068 53.4158 77.1702C53.0803 76.2725 52.952 75.3105 53.0406 74.3562C53.0406 74.15 53.0906 73.9312 53.0906 73.7312V41.7969C53.0906 40.9681 52.7614 40.1732 52.1753 39.5871C51.5893 39.0011 50.7944 38.6719 49.9656 38.6719C49.1368 38.6719 48.342 39.0011 47.7559 39.5871C47.1699 40.1732 46.8406 40.9681 46.8406 41.7969V73.3594C46.8089 73.4785 46.7849 73.5996 46.7687 73.7219C46.7687 73.8781 46.8 74.0125 46.8031 74.1687C46.6729 75.796 46.1297 77.3631 45.225 78.7219C44.7017 79.5285 43.9738 80.182 43.1156 80.6156C42.9668 80.6194 42.8185 80.634 42.6719 80.6594C41.0438 81.0969 39.3594 81.2969 37.6719 81.2406C36.0722 81.0966 34.5794 80.3757 33.4719 79.2125ZM59.5219 89.3844L59.4344 89.4156C58.1497 89.9678 56.7646 90.2481 55.3663 90.2389C53.968 90.2298 52.5867 89.9314 51.3094 89.3625C49.5927 88.4952 48.2299 87.0595 47.4531 85.3C48.3281 84.6593 49.1094 83.9094 49.7844 83.0625C50.1813 83.5625 50.6281 84.0281 51.1125 84.4437C54.1969 86.5437 57.8937 87.5531 61.6188 87.3031C63.5985 87.3392 65.5601 86.9208 67.3528 86.08C69.1455 85.2392 70.7214 83.9984 71.9594 82.4531C72.0312 82.3656 72.075 82.2656 72.1438 82.1781C72.7688 82.9594 73.4938 83.6562 74.3063 84.2406L59.5219 89.375V89.3844Z" fill="#0C4387"/>
</svg>
