<svg width="85" height="78" viewBox="0 0 85 78" fill="none" xmlns="http://www.w3.org/2000/svg">
<path fill-rule="evenodd" clip-rule="evenodd" d="M7.2697 49.1752C4.95913 48.1091 3.10074 46.3807 1.98532 44.2605C0.869902 42.1403 0.560405 39.7479 1.10526 37.4577C1.65012 35.1675 3.01858 33.1088 4.99651 31.6036C6.97443 30.0984 9.4502 29.2318 12.0364 29.1393C12.3154 26.5712 13.6097 24.1848 15.6809 22.4193C17.8033 20.6001 20.475 19.6282 23.1887 19.5009C23.4903 16.9666 24.7781 14.616 26.8218 12.8698C28.9931 11.0087 31.706 10.0541 34.4312 9.94329C34.6752 7.60986 35.7667 5.41878 37.5348 3.71294C39.303 2.00709 41.6481 0.882721 44.2031 0.51579C46.7582 0.148859 49.379 0.560071 51.6555 1.68507C53.9319 2.81007 55.7356 4.58537 56.7842 6.73317L77.5876 49.3584L79.9915 51.6584C83.0752 54.6088 84.7439 58.543 84.6304 62.5957C84.5169 66.6483 82.6305 70.4873 79.3862 73.2682C76.1419 76.0491 71.8055 77.544 67.3309 77.4242C62.8563 77.3043 58.6101 75.5795 55.5263 72.6291L53.1224 70.3291L7.2697 49.1752ZM58.8027 64.6692L58.7358 64.6053L70.9684 54.12L73.8752 56.9011C75.4171 58.3763 76.2514 60.3434 76.1946 62.3697C76.1379 64.396 75.1947 66.3155 73.5725 67.706C71.9504 69.0964 69.7822 69.8439 67.5449 69.7839C65.3076 69.724 63.1845 68.8616 61.6426 67.3864L58.8027 64.6692ZM67.1487 46.8486L50.9282 60.7522L11.0719 42.3675C10.6663 42.183 10.3072 41.9242 10.0175 41.6075C9.7277 41.2909 9.51358 40.9234 9.38874 40.5284C9.2639 40.1334 9.23107 39.7195 9.29233 39.3131C9.35359 38.9067 9.50761 38.5166 9.74458 38.1677C9.98156 37.8188 10.2963 37.5187 10.6688 37.2864C11.0413 37.0542 11.4634 36.8949 11.9083 36.8187C12.3532 36.7425 12.8111 36.7511 13.2529 36.8439C13.6947 36.9366 14.1107 37.1116 14.4745 37.3576L44.0022 57.0767C44.9056 57.6551 46.0219 57.8905 47.1114 57.7326C48.201 57.5746 49.1769 57.0359 49.8299 56.2319C50.4829 55.4279 50.7608 54.4228 50.6041 53.4322C50.4474 52.4416 49.8685 51.5445 48.9916 50.9334L21.8314 32.7916C21.4399 32.5337 21.1118 32.2047 20.8683 31.8259C20.6247 31.447 20.471 31.0266 20.417 30.5915C20.363 30.1564 20.4099 29.7163 20.5547 29.2993C20.6996 28.8824 20.9391 28.4978 21.2579 28.1702C21.5768 27.8427 21.968 27.5794 22.4064 27.3972C22.8449 27.215 23.3209 27.118 23.8039 27.1123C24.287 27.1066 24.7665 27.1924 25.2116 27.3642C25.6568 27.536 26.0578 27.79 26.3889 28.11L50.1667 50.8595C50.9376 51.5971 51.9992 52.0283 53.1178 52.0583C54.2365 52.0882 55.3206 51.7145 56.1316 51.0193C56.9427 50.324 57.4143 49.3643 57.4427 48.3511C57.4711 47.338 57.0539 46.3544 56.283 45.6168L32.5081 22.8701C32.1843 22.5529 31.9358 22.1791 31.7782 21.7717C31.6205 21.3644 31.5571 20.9323 31.5919 20.5026C31.6266 20.0728 31.7588 19.6544 31.9802 19.2737C32.2015 18.8929 32.5073 18.5579 32.8785 18.2895C33.2497 18.0211 33.6782 17.8251 34.1374 17.7137C34.5967 17.6023 35.0767 17.5779 35.5476 17.6421C36.0185 17.7062 36.4702 17.8575 36.8744 18.0865C37.2787 18.3155 37.6269 18.6173 37.8972 18.9731L56.429 44.5584C56.728 44.9898 57.1187 45.3633 57.5784 45.6568C58.038 45.9504 58.5574 46.1582 59.1059 46.268C59.6545 46.3778 60.2213 46.3875 60.7731 46.2964C61.3249 46.2054 61.8506 46.0154 62.3195 45.7377C62.7884 45.46 63.191 45.1001 63.5037 44.679C63.8164 44.258 64.033 43.7844 64.1408 43.2858C64.2485 42.7872 64.2453 42.2738 64.1312 41.7755C64.0171 41.2773 63.7945 40.8042 63.4765 40.3841L44.9647 14.8291L44.9274 14.7767L43.3526 12.6044C43.1013 12.2619 42.9313 11.8761 42.8532 11.4715C42.7752 11.0669 42.7909 10.6524 42.8993 10.2543C43.0078 9.85625 43.2066 9.48331 43.4831 9.15924C43.7596 8.83516 44.1078 8.56703 44.5055 8.37191C44.9032 8.17679 45.3418 8.05894 45.7932 8.02586C46.2447 7.99278 46.6992 8.04519 47.1279 8.17976C47.5566 8.31433 47.95 8.52812 48.2832 8.80752C48.6164 9.08693 48.8821 9.42584 49.0633 9.80269L67.1548 46.8434L67.1487 46.8486Z" fill="#0C4387"/>
</svg>
