<svg width="96" height="96" viewBox="0 0 96 96" fill="none" xmlns="http://www.w3.org/2000/svg">
<path d="M48 9.75C40.4349 9.75 33.0396 11.9933 26.7494 16.1963C20.4593 20.3993 15.5567 26.3731 12.6616 33.3624C9.76656 40.3516 9.00908 48.0424 10.485 55.4622C11.9608 62.882 15.6038 69.6975 20.9532 75.0468C26.3025 80.3962 33.118 84.0392 40.5378 85.515C47.9576 86.9909 55.6484 86.2334 62.6376 83.3384C69.6269 80.4433 75.6008 75.5407 79.8037 69.2506C84.0067 62.9604 86.25 55.5651 86.25 48C86.2381 37.8591 82.2044 28.137 75.0337 20.9663C67.863 13.7956 58.1409 9.76191 48 9.75ZM77.1263 65.0325H63.7088L59.7788 59.625L64.7625 45.105L71.1375 43.0387L81.615 51.075C81.1671 56.0018 79.6342 60.7683 77.1263 65.0325ZM32.2913 65.0325H18.8738C16.3684 60.7676 14.8381 56.0012 14.3925 51.075L24.87 43.0387L31.245 45.105L36.2213 59.625L32.2913 65.0325ZM19.125 30.5325L21.84 39.6863L14.34 45.4388C14.7372 40.1622 16.3769 35.0544 19.125 30.5325ZM40.335 57.75L35.6813 44.1975L48 35.73L60.3188 44.1975L55.665 57.75H40.335ZM74.1562 39.6863L76.875 30.5325C79.6218 35.0547 81.2602 40.1625 81.6562 45.4388L74.1562 39.6863ZM73.5338 25.9538L69.75 38.7562L63.375 40.83L50.25 31.83V25.185L61.8375 17.22C66.3248 19.2463 70.3163 22.2268 73.5338 25.9538ZM56.595 15.375L48 21.27L39.405 15.375C45.0394 13.895 50.9606 13.895 56.595 15.375ZM34.1663 17.2162L45.75 25.185V31.815L32.625 40.815L26.25 38.7412L22.4663 25.9538C25.6852 22.2259 29.6778 19.2442 34.1663 17.2162ZM22.0313 69.5325H31.8488L35.295 79.2825C30.1396 77.1721 25.5839 73.8233 22.0313 69.5325ZM40.6613 80.9438L35.955 67.6462L39.8775 62.25H56.1225L60.045 67.6462L55.3388 80.9438C50.5053 82.0188 45.4947 82.0188 40.6613 80.9438ZM60.705 79.2637L64.1513 69.5137H73.9688C70.4161 73.8045 65.8604 77.1533 60.705 79.2637Z" fill="#0C4387"/>
</svg>
