<svg width="92" height="92" viewBox="0 0 92 92" fill="none" xmlns="http://www.w3.org/2000/svg">
<path d="M46.0784 50.5678C54.9243 50.7794 63.4159 53.3278 70.7483 57.7898C57.4589 71.7508 38.6034 81.4338 19.3891 83.5268C15.3429 80.6507 11.786 77.142 8.85507 73.1354C23.0093 70.9274 35.9354 63.4754 44.8778 52.0996L46.0784 50.5678ZM84.8244 70.679C80.6729 77.2155 74.9373 82.5972 68.15 86.3246C61.3627 90.0519 53.7437 92.0042 46.0002 92C40.28 92.0074 34.6088 90.9449 29.2792 88.8674C47.233 84.8608 64.1335 75.0398 76.4293 61.8194C79.5857 64.4114 82.4059 67.3877 84.8244 70.679ZM90.2708 43.0468L90.28 43.056L91.982 44.7718C92.1667 51.3648 90.9272 57.9202 88.348 63.9906C83.2018 57.8105 76.7946 52.8011 69.5556 49.2978C62.3165 45.7945 54.4125 43.8782 46.3728 43.677C42.6068 37.1198 40.6198 29.6923 40.609 22.1306C59.2325 22.477 77.0112 29.9649 90.2708 43.0468ZM41.1518 15.2398C41.7004 11.807 42.6595 8.45256 44.0084 5.2486L46.2164 0C67.3029 0.0966 85.0406 14.3842 90.3674 33.8008C76.538 22.215 59.1832 15.6705 41.1472 15.2398H41.1518ZM39.4544 47.8354C35.2274 53.2085 29.9396 57.6538 23.9201 60.8948C16.6808 43.5693 16.156 24.1683 22.4481 6.4768C27.3746 3.53285 32.8116 1.54317 38.4746 0.611799L37.6466 2.5714C34.6629 9.65619 33.3449 17.3312 33.7938 25.0055C34.2428 32.6797 36.4469 40.1487 40.2364 46.8372L39.4544 47.8354ZM13.1515 13.8C4.70885 22.3896 -0.0152307 33.956 3.68923e-05 46C3.68923e-05 53.4382 1.76644 60.467 4.90366 66.6862C9.29207 66.2584 13.5655 65.2602 17.6319 63.7422C10.9899 47.9534 9.43185 30.4875 13.1745 13.7724L13.1515 13.8Z" fill="#0C4387"/>
</svg>
